<?xml version="1.0" encoding="UTF-8" standalone="no"?>
<!DOCTYPE svg PUBLIC "-//W3C//DTD SVG 1.1//EN"
 "http://www.w3.org/Graphics/SVG/1.1/DTD/svg11.dtd">
<!-- Generated by graphviz version 12.2.1 (20241206.2353)
 -->
<!-- Title: SolveFunction Pages: 1 -->
<svg width="902pt" height="496pt"
 viewBox="0.00 0.00 901.94 496.23" xmlns="http://www.w3.org/2000/svg" xmlns:xlink="http://www.w3.org/1999/xlink">
<g id="graph0" class="graph" transform="scale(1 1) rotate(0) translate(4 492.23)">
<title>SolveFunction</title>
<polygon fill="#fdfdfd" stroke="none" points="-4,4 -4,-492.23 897.94,-492.23 897.94,4 -4,4"/>
<text text-anchor="middle" x="446.97" y="-467.13" font-family="Helvetica,sans-Serif" font-size="18.00">Visualization of the &#39;solve&#39; Function Logic</text>
<!-- Start -->
<g id="node1" class="node">
<title>Start</title>
<ellipse fill="#cde8ff" stroke="black" cx="505.43" cy="-440.69" rx="30.33" ry="20.79"/>
<text text-anchor="middle" x="505.43" y="-434.89" font-family="Helvetica,sans-Serif" font-size="14.00">Start</text>
</g>
<!-- Init -->
<g id="node3" class="node">
<title>Init</title>
<polygon fill="#fff5c3" stroke="black" points="554.63,-382.9 456.23,-382.9 456.23,-323.5 554.63,-323.5 554.63,-382.9"/>
<text text-anchor="middle" x="505.43" y="-362.4" font-family="Helvetica,sans-Serif" font-size="14.00">Initialize State</text>
<text text-anchor="middle" x="505.43" y="-347.4" font-family="Helvetica,sans-Serif" font-size="14.00">time = 0</text>
<text text-anchor="middle" x="505.43" y="-332.4" font-family="Helvetica,sans-Serif" font-size="14.00">step = 1</text>
</g>
<!-- Start&#45;&gt;Init -->
<g id="edge1" class="edge">
<title>Start&#45;&gt;Init</title>
<path fill="none" stroke="black" d="M505.43,-419.43C505.43,-412.03 505.43,-403.37 505.43,-394.83"/>
<polygon fill="black" stroke="black" points="508.93,-394.89 505.43,-384.89 501.93,-394.89 508.93,-394.89"/>
</g>
<!-- End -->
<g id="node2" class="node">
<title>End</title>
<ellipse fill="#cde8ff" stroke="black" cx="84.43" cy="-136.05" rx="84.43" ry="20.79"/>
<text text-anchor="middle" x="84.43" y="-130.25" font-family="Helvetica,sans-Serif" font-size="14.00">Return final &#39;time&#39;</text>
</g>
<!-- LoopCheck -->
<g id="node4" class="node">
<title>LoopCheck</title>
<polygon fill="#ffddc3" stroke="black" points="505.43,-286.5 343.28,-257.1 505.43,-227.7 667.58,-257.1 505.43,-286.5"/>
<text text-anchor="middle" x="505.43" y="-251.3" font-family="Helvetica,sans-Serif" font-size="14.00">Process next disc in list?</text>
</g>
<!-- Init&#45;&gt;LoopCheck -->
<g id="edge2" class="edge">
<title>Init&#45;&gt;LoopCheck</title>
<path fill="none" stroke="black" d="M505.43,-323.2C505.43,-315.34 505.43,-306.7 505.43,-298.35"/>
<polygon fill="black" stroke="black" points="508.93,-298.36 505.43,-288.36 501.93,-298.36 508.93,-298.36"/>
</g>
<!-- LoopCheck&#45;&gt;End -->
<g id="edge8" class="edge">
<title>LoopCheck&#45;&gt;End</title>
<path fill="none" stroke="black" d="M423.84,-242.05C356.89,-229.38 260.15,-208.44 178.43,-180.45 162.12,-174.87 144.85,-167.38 129.61,-160.19"/>
<polygon fill="black" stroke="black" points="131.32,-157.13 120.8,-155.95 128.29,-163.44 131.32,-157.13"/>
<text text-anchor="middle" x="320.24" y="-200.2" font-family="Helvetica,sans-Serif" font-size="10.00"> No (All discs done) </text>
</g>
<!-- CheckTime -->
<g id="node5" class="node">
<title>CheckTime</title>
<polygon fill="#ffeabf" stroke="black" points="505.43,-180.45 187.28,-136.05 505.43,-91.65 823.58,-136.05 505.43,-180.45"/>
<text text-anchor="middle" x="505.43" y="-137.75" font-family="Helvetica,sans-Serif" font-size="14.00">Check congruence:</text>
<text text-anchor="middle" x="505.43" y="-122.75" font-family="Helvetica,sans-Serif" font-size="14.00">(time + disc.id + disc.initial) % disc.positions == 0?</text>
</g>
<!-- LoopCheck&#45;&gt;CheckTime -->
<g id="edge3" class="edge">
<title>LoopCheck&#45;&gt;CheckTime</title>
<path fill="none" stroke="black" d="M505.43,-227.28C505.43,-216.75 505.43,-204.45 505.43,-192.38"/>
<polygon fill="black" stroke="black" points="508.93,-192.45 505.43,-182.45 501.93,-192.45 508.93,-192.45"/>
<text text-anchor="middle" x="516.68" y="-200.2" font-family="Helvetica,sans-Serif" font-size="10.00"> Yes </text>
</g>
<!-- IncrementTime -->
<g id="node6" class="node">
<title>IncrementTime</title>
<path fill="#ffffff" stroke="black" stroke-dasharray="5,2" d="M556.38,-44.4C556.38,-44.4 444.48,-44.4 444.48,-44.4 438.48,-44.4 432.48,-38.4 432.48,-32.4 432.48,-32.4 432.48,-12 432.48,-12 432.48,-6 438.48,0 444.48,0 444.48,0 556.38,0 556.38,0 562.38,0 568.38,-6 568.38,-12 568.38,-12 568.38,-32.4 568.38,-32.4 568.38,-38.4 562.38,-44.4 556.38,-44.4"/>
<text text-anchor="middle" x="500.43" y="-23.9" font-family="Helvetica,sans-Serif" font-size="14.00">Find next candidate:</text>
<text text-anchor="middle" x="500.43" y="-8.9" font-family="Helvetica,sans-Serif" font-size="14.00">time += step</text>
</g>
<!-- CheckTime&#45;&gt;IncrementTime -->
<g id="edge4" class="edge">
<title>CheckTime&#45;&gt;IncrementTime</title>
<path fill="none" stroke="black" d="M465.49,-96.81C460.15,-89.65 455.47,-81.83 452.43,-73.65 449.68,-66.27 451.44,-59.37 455.6,-53.2"/>
<polygon fill="black" stroke="black" points="458.12,-55.62 462.14,-45.82 452.89,-50.98 458.12,-55.62"/>
<text text-anchor="middle" x="489.93" y="-64.15" font-family="Helvetica,sans-Serif" font-size="10.00"> False (Try next) </text>
</g>
<!-- UpdateStep -->
<g id="node7" class="node">
<title>UpdateStep</title>
<polygon fill="#d7f0db" stroke="black" points="817.38,-44.4 675.48,-44.4 675.48,0 817.38,0 817.38,-44.4"/>
<text text-anchor="middle" x="746.43" y="-23.9" font-family="Helvetica,sans-Serif" font-size="14.00">Update step size:</text>
<text text-anchor="middle" x="746.43" y="-8.9" font-family="Helvetica,sans-Serif" font-size="14.00">step *= disc.positions</text>
</g>
<!-- CheckTime&#45;&gt;UpdateStep -->
<g id="edge6" class="edge">
<title>CheckTime&#45;&gt;UpdateStep</title>
<path fill="none" stroke="black" d="M578.06,-101.34C613.86,-84.73 656.39,-64.99 689.74,-49.51"/>
<polygon fill="black" stroke="black" points="690.81,-52.87 698.41,-45.49 687.87,-46.52 690.81,-52.87"/>
<text text-anchor="middle" x="703.22" y="-64.15" font-family="Helvetica,sans-Serif" font-size="10.00"> True (Found time) </text>
</g>
<!-- IncrementTime&#45;&gt;CheckTime -->
<g id="edge5" class="edge">
<title>IncrementTime&#45;&gt;CheckTime</title>
<path fill="none" stroke="black" d="M518.66,-44.77C522.26,-50.2 525.51,-56.25 527.43,-62.4 529.51,-69.09 529.78,-76.14 528.9,-83.1"/>
<polygon fill="black" stroke="black" points="525.49,-82.3 526.86,-92.81 532.34,-83.74 525.49,-82.3"/>
<text text-anchor="middle" x="541.25" y="-64.15" font-family="Helvetica,sans-Serif" font-size="10.00"> loop </text>
</g>
<!-- UpdateStep&#45;&gt;LoopCheck -->
<g id="edge7" class="edge">
<title>UpdateStep&#45;&gt;LoopCheck</title>
<path fill="none" stroke="black" d="M787.28,-44.63C804.58,-56.06 822.9,-71.88 832.43,-91.65 849.57,-127.2 856.99,-149.56 832.43,-180.45 805.99,-213.7 703.6,-233.61 620.35,-244.6"/>
<polygon fill="black" stroke="black" points="619.97,-241.12 610.5,-245.86 620.87,-248.06 619.97,-241.12"/>
<text text-anchor="middle" x="871.06" y="-132.18" font-family="Helvetica,sans-Serif" font-size="10.00"> next disc </text>
</g>
</g>
</svg>
